<svg xmlns="http://www.w3.org/2000/svg" xmlns:xlink="http://www.w3.org/1999/xlink" viewBox="0 0 226.21 97.17">
  <defs>
    <linearGradient id="a" data-name="Безымянный градиент 129" x1="111.19" y1="57.63" x2="111.19" y2="1.97" gradientUnits="userSpaceOnUse">
      <stop offset="0" stop-color="#ffff29"/>
      <stop offset="1" stop-color="#ff7e59"/>
    </linearGradient>
    <radialGradient id="b" data-name="Безымянный градиент 104" cx="110.16" cy="-3702.32" r="62.01" gradientTransform="translate(0 5266.43) scale(1 1.4)" gradientUnits="userSpaceOnUse">
      <stop offset="0.02" stop-color="#8343b0"/>
      <stop offset="0.4" stop-color="#7937aa"/>
      <stop offset="0.99" stop-color="#611b9c"/>
    </radialGradient>
    <radialGradient id="c" data-name="Безымянный градиент 112" cx="105.68" cy="2009.29" r="95.47" gradientTransform="translate(0 -1278.82) scale(1 0.66)" gradientUnits="userSpaceOnUse">
      <stop offset="0" stop-color="#d4cfff"/>
      <stop offset="1" stop-color="#8d6fc7"/>
    </radialGradient>
    <linearGradient id="d" x1="113.1" y1="86.54" x2="113.1" y2="83.25" xlink:href="#a"/>
    <linearGradient id="e" x1="151.76" y1="87.32" x2="151.76" y2="84.28" xlink:href="#a"/>
    <linearGradient id="f" x1="176.69" y1="91.14" x2="176.69" y2="89.2" xlink:href="#a"/>
    <linearGradient id="g" x1="142.4" y1="87.2" x2="142.4" y2="84.16" gradientTransform="matrix(-1, 0, 0, 1, 220.51, 0)" xlink:href="#a"/>
    <linearGradient id="h" x1="171.81" y1="90.95" x2="171.81" y2="89.01" gradientTransform="matrix(-1, 0, 0, 1, 220.51, 0)" xlink:href="#a"/>
    <radialGradient id="i" data-name="Безымянный градиент 176" cx="108.92" cy="-3720.69" r="36.78" gradientTransform="translate(0 5654.13) scale(1 1.51)" gradientUnits="userSpaceOnUse">
      <stop offset="0.02" stop-color="#725eb0"/>
      <stop offset="0.38" stop-color="#6d52aa"/>
      <stop offset="0.99" stop-color="#61349c"/>
    </radialGradient>
    <linearGradient id="j" data-name="Безымянный градиент 220" x1="112.32" y1="71.76" x2="112.32" y2="69.17" gradientUnits="userSpaceOnUse">
      <stop offset="0" stop-color="#8dc7ff"/>
      <stop offset="0.32" stop-color="#5c4d86"/>
    </linearGradient>
    <radialGradient id="k" data-name="Безымянный градиент 217" cx="384.41" cy="-369.63" r="6.26" gradientTransform="matrix(1.37, -0.44, 0.53, 1.12, -217.97, 652.97)" gradientUnits="userSpaceOnUse">
      <stop offset="0" stop-color="#003cee"/>
      <stop offset="0.06" stop-color="#0036d6"/>
      <stop offset="0.2" stop-color="#00289e"/>
      <stop offset="0.34" stop-color="#001c6d"/>
      <stop offset="0.48" stop-color="#001246"/>
      <stop offset="0.62" stop-color="#000a27"/>
      <stop offset="0.75" stop-color="#000412"/>
      <stop offset="0.88" stop-color="#000104"/>
      <stop offset="1"/>
    </radialGradient>
    <linearGradient id="l" x1="205.39" y1="75.19" x2="205.39" y2="72.6" xlink:href="#j"/>
    <radialGradient id="m" cx="441.12" cy="-344.61" r="6.26" xlink:href="#k"/>
    <linearGradient id="n" x1="23.83" y1="75.19" x2="23.83" y2="72.6" xlink:href="#j"/>
    <radialGradient id="o" cx="327.28" cy="-388.71" r="6.26" xlink:href="#k"/>
    <radialGradient id="p" data-name="Безымянный градиент 266" cx="400.08" cy="-350.57" r="6.98" gradientTransform="translate(-956.02 600.09) scale(2.67 1.47)" gradientUnits="userSpaceOnUse">
      <stop offset="0" stop-color="#ff9a00"/>
      <stop offset="0.09" stop-color="#d68100"/>
      <stop offset="0.23" stop-color="#9e5f00"/>
      <stop offset="0.36" stop-color="#6e4200"/>
      <stop offset="0.5" stop-color="#462a00"/>
      <stop offset="0.63" stop-color="#271800"/>
      <stop offset="0.76" stop-color="#120b00"/>
      <stop offset="0.89" stop-color="#040300"/>
      <stop offset="1"/>
    </radialGradient>
    <radialGradient id="q" cx="386.69" cy="-349.33" r="2.51" xlink:href="#p"/>
    <radialGradient id="r" cx="423.14" cy="-348.21" r="2.51" gradientTransform="translate(-804.39 329.29) scale(2.32 0.69)" xlink:href="#p"/>
  </defs>
  <title>Ресурс 7</title>
  <g style="isolation: isolate">
    <g>
      <path d="M42.14,55.62S72.07,4,108.69,2c38-2,71.55,55.61,71.55,55.61Z" style="fill-rule: evenodd;fill: url(#a)"/>
      <path d="M226.15,77.28c-.58,1.92-42.21,19.79-113,19.79C47.67,97.07-.6,80.25.05,77.28c.46-2.09,50.62-9.1,113.05-9.1S226.58,75.84,226.15,77.28Z" style="fill-rule: evenodd;fill: url(#b)"/>
      <path d="M.05,77.28S32.9,45.56,108.69,45.56,226.15,77.28,226.15,77.28s-31.09-7.2-117.46-7.2C39.73,70.08.05,77.28.05,77.28Z" style="fill-rule: evenodd;fill: url(#c)"/>
      <path d="M203.73,86l-.48-.15c.42-1.36-2.05-2.48-4.2-3.18-14.57-4.73-60.84-6.34-97.67-5.84-46.08.63-78.12,4.23-79.73,9l-.48-.17c2.08-6.07,42.79-8.78,80.2-9.29,36.87-.5,83.22,1.12,97.84,5.87C202.69,83.34,204.17,84.58,203.73,86Z" style="fill: #3c107b"/>
      <path d="M66.84,94.28s38.48-5.06,89.87.42C156.71,94.7,110.7,99.73,66.84,94.28Z" style="fill: #31165f;fill-rule: evenodd"/>
      <path d="M71.39,94.7a373,373,0,0,1,80.6.49S110.28,100,71.39,94.7Z" style="fill: #0054b5;fill-rule: evenodd"/>
      <path d="M79.8,93.79s41.76,3.38,62.43.18C142.23,94,104.22,91.67,79.8,93.79Z" style="fill: #31c7ff;fill-rule: evenodd"/>
      <path d="M120.73,84.9c0,.91-3.42,1.64-7.63,1.64s-7.64-.73-7.64-1.64a.51.51,0,0,1,.2-.37c.77-.73,3.81-1.28,7.44-1.28,3.15,0,5.86.42,7,1C120.51,84.45,120.73,84.67,120.73,84.9Z" style="fill-rule: evenodd;fill: url(#d)"/>
      <path d="M120.13,84.27c0,.78-3.27,1.41-7.3,1.41-3.57,0-6.54-.5-7.17-1.15.77-.73,3.81-1.28,7.44-1.28,3.15,0,5.86.42,7,1Z" style="fill: #fff;fill-rule: evenodd"/>
      <g>
        <path d="M156.64,85.8c0,.84-2.18,1.52-4.88,1.52-2.22,0-4.1-.47-4.68-1.1h0a.61.61,0,0,1-.18-.42.59.59,0,0,1,.12-.34c.49-.68,2.43-1.18,4.75-1.18a11.5,11.5,0,0,1,3.6.5,3,3,0,0,1,.89.43A.77.77,0,0,1,156.64,85.8Z" style="fill-rule: evenodd;fill: url(#e)"/>
        <path d="M155.56,85.2c0,.84-2.18,1.51-4.88,1.51a11.84,11.84,0,0,1-3.6-.49h0a.61.61,0,0,1-.18-.42.59.59,0,0,1,.12-.34c.49-.68,2.43-1.18,4.75-1.18a11.5,11.5,0,0,1,3.6.5A.59.59,0,0,1,155.56,85.2Z" style="fill: #fff;fill-rule: evenodd"/>
      </g>
      <g>
        <path d="M180.64,90.17c0,.54-1.77,1-3.95,1a7.5,7.5,0,0,1-3.8-.7h0a.36.36,0,0,1-.16-.27.31.31,0,0,1,.11-.21c.39-.44,2-.76,3.85-.76a11.54,11.54,0,0,1,2.91.32,3.14,3.14,0,0,1,.73.27C180.53,89.91,180.64,90,180.64,90.17Z" style="fill-rule: evenodd;fill: url(#f)"/>
        <path d="M179.76,89.79c0,.53-1.77,1-3.95,1a12.05,12.05,0,0,1-2.92-.32h0a.36.36,0,0,1-.16-.27.31.31,0,0,1,.11-.21c.39-.44,2-.76,3.85-.76a11.54,11.54,0,0,1,2.91.32A.33.33,0,0,1,179.76,89.79Z" style="fill: #fff;fill-rule: evenodd"/>
      </g>
      <g>
        <path d="M73.23,85.68c0,.84,2.18,1.52,4.88,1.52,2.22,0,4.1-.47,4.69-1.1h0a.62.62,0,0,0,.19-.42.6.6,0,0,0-.13-.34c-.49-.67-2.43-1.18-4.75-1.18a11.5,11.5,0,0,0-3.6.5,3.21,3.21,0,0,0-.89.43A.77.77,0,0,0,73.23,85.68Z" style="fill-rule: evenodd;fill: url(#g)"/>
        <path d="M74.31,85.08c0,.84,2.19,1.51,4.88,1.51a11.91,11.91,0,0,0,3.61-.49h0a.62.62,0,0,0,.19-.42.6.6,0,0,0-.13-.34c-.49-.67-2.43-1.18-4.75-1.18a11.5,11.5,0,0,0-3.6.5A.59.59,0,0,0,74.31,85.08Z" style="fill: #fff;fill-rule: evenodd"/>
      </g>
      <g>
        <path d="M44.75,90c0,.53,1.77,1,4,1a7.5,7.5,0,0,0,3.8-.7h0a.38.38,0,0,0,.15-.27.32.32,0,0,0-.1-.22c-.39-.43-2-.75-3.85-.75a12.24,12.24,0,0,0-2.92.31,3.18,3.18,0,0,0-.72.28C44.86,89.72,44.75,89.85,44.75,90Z" style="fill-rule: evenodd;fill: url(#h)"/>
        <path d="M45.62,89.6c0,.53,1.77,1,4,1a12.12,12.12,0,0,0,2.92-.31h0a.38.38,0,0,0,.15-.27.32.32,0,0,0-.1-.22c-.39-.43-2-.75-3.85-.75a12.24,12.24,0,0,0-2.92.31A.39.39,0,0,0,45.62,89.6Z" style="fill: #fff;fill-rule: evenodd"/>
      </g>
      <path d="M208.47,67.44c-49-20.89-98.68-20-131.74-15.59C40.9,56.64,16.34,66.5,16.09,66.6l-.19-.46c.25-.1,24.86-10,60.75-14.78,33.12-4.43,82.92-5.32,132,15.62Z" style="fill: #77439f"/>
      <path d="M.11,77.52,0,77c.33-.07,34.07-7.14,114.83-7.14S225.91,77,226.21,77l-.12.49c-.29-.07-30.56-7.13-111.26-7.13S.44,77.45.11,77.52Z" style="fill: #3c107b"/>
      <path d="M25.11,74.08l-.34-.37c.14-.13,13.77-12.77,24-17.3l.2.45C38.82,61.36,25.25,74,25.11,74.08Z" style="fill: #77439f"/>
      <path d="M205.25,74.45c-15.64-12.84-38.91-20.11-39.15-20.18l.15-.48c.23.07,23.6,7.37,39.31,20.27Z" style="fill: #77439f"/>
      <path d="M127.33,9.07s3,3.35,8.74,9.64l5.47.07s-3-5.15-11.24-9.71Z" style="fill: #fff"/>
      <path d="M43.34,53.64s32.88-52.18,68.92-51,65.49,51,65.49,51S145.42,0,113.1,0C75.88,0,43.34,53.64,43.34,53.64Z" style="fill: #fff"/>
      <path d="M67.08,47.67a103.08,103.08,0,0,1,46.23-13.54A78.87,78.87,0,0,1,160,47.28S112.38,37.14,67.08,47.67Z" style="fill: #ff935f;fill-rule: evenodd"/>
      <path d="M49.92,48.67s7.25-11.06,16.13-19.16l3.13-.73S60.13,40.27,57,46.71Z" style="fill: #fff"/>
      <path d="M42.14,55.62l1.56-2.48s82.75-24.68,134.05.5L179.27,56s-23.07-9.41-69.76-9.41S42.14,55.62,42.14,55.62Z" style="fill-rule: evenodd;fill: url(#i)"/>
      <path d="M51.53,72.59s55.76-5.39,140.65,1C192.18,73.58,132.83,69.24,51.53,72.59Z" style="fill: #fff;mix-blend-mode: soft-light"/>
      <g>
        <path d="M113.9,70.46a1.61,1.61,0,1,1-1.58-1.29A1.46,1.46,0,0,1,113.9,70.46Z" style="fill-rule: evenodd;fill: url(#j)"/>
        <path d="M113.57,70.46a1.28,1.28,0,1,1-1.25-1A1.16,1.16,0,0,1,113.57,70.46Z" style="fill: #fff;fill-rule: evenodd"/>
      </g>
      <path d="M121.42,67.74c1.83,3.88-.52,8.26-5.27,9.76s-10.08-.42-11.92-4.31.52-8.26,5.27-9.76S119.58,63.85,121.42,67.74Z" style="mix-blend-mode: screen;fill: url(#k)"/>
      <g>
        <path d="M207,73.9a1.62,1.62,0,1,1-1.59-1.3A1.46,1.46,0,0,1,207,73.9Z" style="fill-rule: evenodd;fill: url(#l)"/>
        <path d="M206.64,73.9a1.27,1.27,0,1,1-1.25-1A1.16,1.16,0,0,1,206.64,73.9Z" style="fill: #fff;fill-rule: evenodd"/>
      </g>
      <path d="M212.49,71.17c1.84,3.89-.52,8.26-5.26,9.76s-10.09-.42-11.92-4.31.51-8.26,5.26-9.76S210.65,67.28,212.49,71.17Z" style="mix-blend-mode: screen;fill: url(#m)"/>
      <g>
        <path d="M25.41,73.9a1.46,1.46,0,0,1-1.58,1.29,1.32,1.32,0,1,1,0-2.59A1.46,1.46,0,0,1,25.41,73.9Z" style="fill-rule: evenodd;fill: url(#n)"/>
        <path d="M25.07,73.9a1.27,1.27,0,1,1-1.24-1A1.15,1.15,0,0,1,25.07,73.9Z" style="fill: #fff;fill-rule: evenodd"/>
      </g>
      <ellipse cx="24.33" cy="73.9" rx="9.21" ry="7.55" style="mix-blend-mode: screen;fill: url(#o)"/>
      <g style="mix-blend-mode: soft-light">
        <path d="M108.06,59.85a1.18,1.18,0,0,0,.74.24c.17,0,.31-.05.47-.07l.43,0a2.23,2.23,0,0,0,.66-.1c.12,0,0-.09-.12-.11a1.18,1.18,0,0,0-.39-.07,5.25,5.25,0,0,1-.56,0l-.21,0h-.3C108.56,59.64,108.15,59.7,108.06,59.85Z" style="fill: #fff;fill-rule: evenodd"/>
        <path d="M111,60.22a.41.41,0,0,1-.25,0c0-.13.7-.18.84-.05s-.37.16-.59.12Z" style="fill: #fff;fill-rule: evenodd"/>
        <path d="M115.44,62.73c-.09-.07-.21-.13-.16-.21a.52.52,0,0,1,.27-.16,3.06,3.06,0,0,1,.57-.1,1.46,1.46,0,0,1,.3,0,1.18,1.18,0,0,1,.81.37.66.66,0,0,1,.17.25.64.64,0,0,0,.06.18c0,.05.07.1,0,.15a.62.62,0,0,1-.17.11,1.69,1.69,0,0,1-.77.16,2.06,2.06,0,0,1-1.18-.43C115.21,62.89,115,62.67,115.44,62.73Z" style="fill: #fff;fill-rule: evenodd"/>
        <path d="M114.71,62.08c.16,0,.2,0,.29,0s.06-.09,0-.12a.62.62,0,0,0-.53-.11c-.1,0-.27.09-.28.13s.3.21.5.2Z" style="fill: #fff;fill-rule: evenodd"/>
        <path d="M119.94,59.35h.87l1.17,0c.29,0,.57,0,.85,0l.43,0s-.08,0-.11,0l-.33,0-.72-.14-.14,0-.15-.06-.28-.07a5.36,5.36,0,0,0-.81,0l-.26,0h-.29a3.24,3.24,0,0,0-.57.09c-.21,0-.57.1-.63.21s.11.07.22.08h.4Z" style="fill: #fff;fill-rule: evenodd"/>
        <path d="M118.1,59.24c-.1,0-.28-.05-.25-.11s.24-.06.35-.05c.27,0,0,.15-.19.14Z" style="fill: #fff;fill-rule: evenodd"/>
        <path d="M119.8,58.2a1.12,1.12,0,0,0,.32,0c.17,0,.24-.06.24-.12s0-.17-.31-.19a1.28,1.28,0,0,0-.5.08.15.15,0,0,0-.09.08c0,.06.11.08.23.11Z" style="fill: #fff;fill-rule: evenodd"/>
        <path d="M127.6,56a1.6,1.6,0,0,1-.42-.45c-.08-.14,0-.28-.08-.42a2.19,2.19,0,0,0-.34-.58.44.44,0,0,1-.05-.5.91.91,0,0,1,.61-.33,4.05,4.05,0,0,1,.62-.07l.3,0h.18c.1,0,.1,0,.1,0a.19.19,0,0,1-.11.18.6.6,0,0,0-.25.31,2,2,0,0,0-.14.3c0,.1-.07.2-.1.3s-.07.18-.1.26,0,.18,0,.26a1.62,1.62,0,0,1,0,.22.59.59,0,0,0,0,.13.43.43,0,0,1,0,.11s0,.06,0,.1A.44.44,0,0,1,127.6,56Z" style="fill: #fff;fill-rule: evenodd"/>
        <path d="M126,55.09a.26.26,0,0,0,.16.06h.11c.17,0,.18-.12.18-.18s-.12-.31-.39-.42a2,2,0,0,0-.72-.11.8.8,0,0,0-.62.3.25.25,0,0,0,.16.38.9.9,0,0,0,.31.06h.27a2,2,0,0,0,.35,0A.42.42,0,0,0,126,55.09Z" style="fill: #fff;fill-rule: evenodd"/>
        <path d="M126,54.22a.3.3,0,0,1-.19,0c-.07,0-.1,0-.08-.08a.39.39,0,0,1,.33-.06.16.16,0,0,1,.14.09s-.07.08-.17.09Z" style="fill: #fff;fill-rule: evenodd"/>
        <path d="M117.9,53.1a.38.38,0,0,0,.23.11.41.41,0,0,0,.19,0,1,1,0,0,0,.45-.2c0-.05,0-.12,0-.17a1.17,1.17,0,0,0-.3-.12l-.28-.08a1,1,0,0,0-.55,0c-.18,0-.31.13-.3.21s.07.11.14.17S117.57,53.09,117.9,53.1Z" style="fill: #fff;fill-rule: evenodd"/>
        <path d="M118.74,53.39a.24.24,0,0,1,.09-.12s.07,0,.13,0,.06.07.06.09,0,.07-.1.09-.12,0-.13,0Z" style="fill: #fff;fill-rule: evenodd"/>
        <path d="M125.28,57.33a.71.71,0,0,0,.41,0c.13,0,.1-.13,0-.18a.23.23,0,0,0-.15-.07h-.27c-.21,0-.36-.08-.56,0s-.15.1-.13.14.26.13.44.16Z" style="fill: #fff;fill-rule: evenodd"/>
        <path d="M133,64a.72.72,0,0,0,.34.24h.09a1.6,1.6,0,0,0,.49,0c.48-.1.42-.29.42-.47s0-.43-.62-.34a3.91,3.91,0,0,0-1,.21c-.1.06-.05.08,0,.14A.84.84,0,0,0,133,64Z" style="fill: #fff;fill-rule: evenodd"/>
        <path d="M180.57,76a.67.67,0,0,0,.34.25h.1a1.29,1.29,0,0,0,.48,0c.48-.1.42-.29.42-.47s.05-.43-.62-.34a3.76,3.76,0,0,0-1,.2c-.1.06-.06.09,0,.15a.62.62,0,0,0,.27.22Z" style="fill: #fff;fill-rule: evenodd"/>
        <path d="M133.77,61.78c-.13,0-.38-.07-.4-.14s.07-.08.15-.13a.93.93,0,0,1,.72-.09c.14,0,.23.15.2.22a.52.52,0,0,1-.42.14Z" style="fill: #fff;fill-rule: evenodd"/>
        <path d="M91.52,52.75a1.77,1.77,0,0,0,.76,0,3.81,3.81,0,0,0,.81-.13c.29-.11.22-.26.29-.39s.08-.17-.1-.26a3.57,3.57,0,0,0-.72-.24,8.76,8.76,0,0,0-2.89,0,2.74,2.74,0,0,0-1.38.49c-.15.21,0,.45.38.6a4.06,4.06,0,0,0,1.55.14l.38,0h.49A.51.51,0,0,0,91.52,52.75Z" style="fill: #fff;fill-rule: evenodd"/>
        <path d="M45.08,77a1.77,1.77,0,0,0,.76,0,3.91,3.91,0,0,0,.82-.13c.28-.11.21-.26.29-.39s.08-.17-.11-.26a3.68,3.68,0,0,0-.71-.24,8.55,8.55,0,0,0-2.9,0,2.61,2.61,0,0,0-1.37.48c-.15.21,0,.45.38.6a4,4,0,0,0,1.54.14l.38,0h.5A.5.5,0,0,0,45.08,77Z" style="fill: #fff;fill-rule: evenodd"/>
        <path d="M93,53.14a.9.9,0,0,1,.58-.14,2,2,0,0,1,.34,0c.18,0,.36.12.34.2s-.29.14-.41.17a1.09,1.09,0,0,1-.44,0Z" style="fill: #fff;fill-rule: evenodd"/>
        <path d="M92.86,66.92a1.58,1.58,0,0,0,.88-.06c.14-.09,0-.23-.16-.3a3.55,3.55,0,0,0-1.14-.26c-.39,0-.8.17-.84.31s1.06.43,1.6.45Z" style="fill: #fff;fill-rule: evenodd"/>
        <path d="M90.82,84a1.58,1.58,0,0,0,.88-.06c.14-.09,0-.23-.16-.31a3.78,3.78,0,0,0-1.14-.25c-.38,0-.8.17-.84.31s1.06.43,1.6.45Z" style="fill: #fff;fill-rule: evenodd"/>
        <path d="M96.22,67.12a1.63,1.63,0,0,1-.45.07s-.06,0-.09,0-.28-.08-.31-.14.07-.26.38-.33a1.16,1.16,0,0,1,.59,0c.19.08.27.24,0,.31Z" style="fill: #fff;fill-rule: evenodd"/>
        <path d="M135.11,54.58a6,6,0,0,0,1.65,0,2,2,0,0,0,1-.19c.38-.35-1.55-.62-2.16-.69a11.2,11.2,0,0,0-1.64,0,3.15,3.15,0,0,0-1.13.25c-.21.15.05.33.37.43a17.85,17.85,0,0,0,2.52.27Z" style="fill: #fff;fill-rule: evenodd"/>
        <path d="M135,54.76s0,.2.14.25a.71.71,0,0,0,.28.11,1,1,0,0,0,.44-.07c.07,0,.14-.08.1-.12a.63.63,0,0,0-.22-.08,3.62,3.62,0,0,0-.41-.09,1.18,1.18,0,0,0-.21,0,1,1,0,0,0-.25,0Z" style="fill: #fff;fill-rule: evenodd"/>
        <path d="M139.68,55l.14-.12a.88.88,0,0,1,.34,0,.1.1,0,0,1,0,.14.41.41,0,0,1-.29.09c-.16,0-.22-.06-.25-.12Z" style="fill: #fff;fill-rule: evenodd"/>
        <path d="M146,60.39a.69.69,0,0,0,.38,0c.18-.07.21-.16.06-.24a2.42,2.42,0,0,0-1-.19c-.23,0-.49.14-.35.22a1,1,0,0,0,.25.14,2,2,0,0,0,.63.09Z" style="fill: #fff;fill-rule: evenodd"/>
        <path d="M72,56.05a.5.5,0,0,0,.26.08,1.61,1.61,0,0,0,.44,0,.87.87,0,0,0,.53-.36c.06-.11,0-.19-.14-.29a1.83,1.83,0,0,0-.75-.18,1.41,1.41,0,0,0-.78.12,1,1,0,0,0-.4.32c0,.11,0,.18.2.26A.87.87,0,0,0,72,56.05Z" style="fill: #fff;fill-rule: evenodd"/>
        <path d="M73,55.14c-.08,0-.18,0-.21,0s.08-.13.17-.16a.85.85,0,0,1,.33,0,.61.61,0,0,1,.19.06c.08,0,.09.09,0,.13a.41.41,0,0,1-.25.09Z" style="fill: #fff;fill-rule: evenodd"/>
        <path d="M61.93,57.94a1.08,1.08,0,0,0,.37,0,1.45,1.45,0,0,0,.5-.19c.16-.1.29-.22.27-.35s-.27-.16-.48-.18a3.39,3.39,0,0,0-.8.08c-.39.12-.7.32-.66.51S62,58,61.93,57.94Z" style="fill: #fff;fill-rule: evenodd"/>
        <path d="M63.94,57a.65.65,0,0,1-.21.05s-.13,0-.16-.08,0-.07,0-.1a.49.49,0,0,1,.3-.08.37.37,0,0,1,.24.06s.06,0,0,.08A.54.54,0,0,1,64,57Z" style="fill: #fff;fill-rule: evenodd"/>
      </g>
      <ellipse cx="113.9" cy="84.47" rx="18.66" ry="10.26" style="mix-blend-mode: screen;fill: url(#p)"/>
      <path d="M84.81,86.29c0,2-3,3.69-6.7,3.69s-6.71-1.65-6.71-3.69,3-3.68,6.71-3.68S84.81,84.26,84.81,86.29Z" style="mix-blend-mode: screen;fill: url(#q)"/>
      <path d="M182.27,89.9c0,.95-2.6,1.72-5.81,1.72s-5.81-.77-5.81-1.72,2.6-1.72,5.81-1.72S182.27,89,182.27,89.9Z" style="mix-blend-mode: screen;fill: url(#r)"/>
    </g>
  </g>
</svg>
