<svg xmlns="http://www.w3.org/2000/svg" viewBox="0 0 121.42 120.34">
  <title>Ресурс 4</title>
  <g>
    <polygon points="80.01 30.35 121.42 120.34 118.6 120.34 69.27 30.35 80.01 30.35" style="fill: #321255;fill-rule: evenodd"/>
    <polygon points="69.27 0.86 67.8 7.45 58 7.82 58.94 1.57 69.27 0.86" style="fill: #321255;fill-rule: evenodd"/>
    <polygon points="58 7.82 53.1 7.82 52.24 0.25 56.65 0 56.78 1.72 58.94 1.57 58 7.82" style="fill: #5a4d9c;fill-rule: evenodd"/>
    <polygon points="57.23 7.82 58 15.43 63.94 15.43 64.79 7.56 57.23 7.82" style="fill: #321255;fill-rule: evenodd"/>
    <polygon points="38.31 12.81 65.85 12.65 65.85 20.48 38.31 20.48 38.31 12.81" style="fill: #5a4d9c;fill-rule: evenodd"/>
    <polygon points="65.85 12.65 82.73 14.05 85.29 20.48 65.85 20.48 65.85 12.65" style="fill: #321255;fill-rule: evenodd"/>
    <polygon points="41.54 20.48 43.12 31.37 80.01 30.35 82.39 20.48 41.54 20.48" style="fill: #321255;fill-rule: evenodd"/>
    <polygon points="42.14 24.64 0 120.34 2.24 120.34 47.67 31.37 42.14 24.64" style="fill: #5a4d9c;fill-rule: evenodd"/>
    <polygon points="61.97 30.85 66.3 24.64 73.04 30.54 94.18 120.34 90.6 120.34 61.97 30.85" style="fill: #5a4d9c;fill-rule: evenodd"/>
    <polygon points="66.3 24.64 92.68 120.34 94.18 120.34 73.04 30.54 66.3 24.64" style="fill: #321255;fill-rule: evenodd"/>
    <polygon points="45.97 29.29 1.29 120.34 2.24 120.34 47.67 31.37 45.97 29.29" style="fill: #321255;fill-rule: evenodd"/>
    <polygon points="80.69 89.36 16.64 90.37 15.75 92.48 81.54 92 80.69 89.36" style="fill: #5a4d9c;fill-rule: evenodd"/>
    <polygon points="86.77 88.86 105.56 88.86 107.71 90.92 86.77 91.87 86.77 88.86" style="fill: #321255;fill-rule: evenodd"/>
    <polygon points="75.16 76.89 80.24 73.57 82.21 80.2 76.92 82.58 75.16 76.89" style="fill: #bebdff;fill-rule: evenodd"/>
    <polygon points="86.77 80.1 82.21 80.2 80.24 73.57 85.29 74.33 86.77 80.1" style="fill: #5a4d9c;fill-rule: evenodd"/>
    <polygon points="86.77 80.1 84.9 80.93 81.81 80.93 78.52 82.58 76.92 82.58 82.21 80.2 86.77 80.1" style="fill: #321255;fill-rule: evenodd"/>
    <polygon points="18.95 74.55 21.91 76.11 19.26 81.16 16.65 80.07 18.95 74.55" style="fill: #bebdff;fill-rule: evenodd"/>
    <polygon points="21.91 76.11 24.94 78.21 22.57 82.22 19.26 81.16 21.91 76.11" style="fill: #5a4d9c;fill-rule: evenodd"/>
    <polygon points="93.53 76.35 101.02 73.57 102.86 78.69 96.14 81.04 93.53 76.35" style="fill: #5a4d9c;fill-rule: evenodd"/>
    <ellipse cx="78.07" cy="20.48" rx="8.02" ry="13.77" style="fill: #bebdff"/>
    <path d="M76.92,6.86a12.19,12.19,0,0,1,7.74,0L83.51,34.25a10.57,10.57,0,0,1-6.59-.15S70,17.61,76.92,6.86Z" style="fill: #bebdff;fill-rule: evenodd"/>
    <ellipse cx="83.51" cy="20.48" rx="8.02" ry="13.77" style="fill: #5a4d9c"/>
    <path d="M88.4,20.4c0,3-1.4,5.34-3.11,5.34s-3.12-2.39-3.12-5.34,1.4-5.34,3.12-5.34S88.4,17.45,88.4,20.4Z" style="fill: #321255;fill-rule: evenodd"/>
    <path d="M86.7,20.48c0,2.14-1,3.88-2.27,3.88s-2.26-1.74-2.26-3.88,1-3.88,2.26-3.88S86.7,18.34,86.7,20.48Z" style="fill: #bebdff;fill-rule: evenodd"/>
    <path d="M72.11,11.27a6.75,6.75,0,0,0,4.54-.67C78.79,9.35,76.36,7,76.36,7S73.8,7.55,72.11,11.27Z" style="fill: #fff;fill-rule: evenodd"/>
  </g>
</svg>
