<svg xmlns="http://www.w3.org/2000/svg" xmlns:xlink="http://www.w3.org/1999/xlink" viewBox="0 0 157.73 74.63">
  <defs>
    <linearGradient id="a" data-name="Безымянный градиент 160" x1="66.3" y1="-4.06" x2="66.3" y2="-24.33" gradientTransform="translate(18.82 21.85) rotate(2.85)" gradientUnits="userSpaceOnUse">
      <stop offset="0.01" stop-color="#2f0063"/>
      <stop offset="0.98" stop-color="#383e81"/>
    </linearGradient>
    <linearGradient id="b" data-name="Безымянный градиент 162" x1="49.26" y1="-10.18" x2="49.26" y2="-20.85" gradientTransform="translate(18.82 21.85) rotate(2.85)" gradientUnits="userSpaceOnUse">
      <stop offset="0" stop-color="#007cde"/>
      <stop offset="1" stop-color="#0f4aa4"/>
    </linearGradient>
    <linearGradient id="c" data-name="Безымянный градиент 171" x1="150.33" y1="60.22" x2="150.33" y2="35.69" gradientUnits="userSpaceOnUse">
      <stop offset="0" stop-color="#a40540"/>
      <stop offset="1" stop-color="#c7224a"/>
    </linearGradient>
    <linearGradient id="d" data-name="Безымянный градиент 149" x1="84.16" y1="71.39" x2="84.16" y2="10.02" gradientUnits="userSpaceOnUse">
      <stop offset="0" stop-color="#9795ff"/>
      <stop offset="1" stop-color="#f4f1ff"/>
    </linearGradient>
    <linearGradient id="e" x1="41.25" y1="75.8" x2="41.25" y2="8.85" gradientTransform="translate(0.17 -1.45) rotate(1.03)" xlink:href="#a"/>
    <linearGradient id="f" x1="19.48" y1="70.18" x2="19.48" y2="15.18" gradientTransform="translate(0.17 -1.45) rotate(1.03)" xlink:href="#b"/>
    <linearGradient id="g" x1="115.05" y1="67.14" x2="115.05" y2="23.52" xlink:href="#c"/>
    <linearGradient id="h" data-name="Безымянный градиент 163" x1="54.82" y1="42.76" x2="105.53" y2="42.76" gradientUnits="userSpaceOnUse">
      <stop offset="0" stop-color="#9579a7"/>
      <stop offset="1" stop-color="#fff"/>
    </linearGradient>
    <linearGradient id="i" x1="91.11" y1="21.22" x2="91.11" y2="4.1" xlink:href="#d"/>
  </defs>
  <title>Ресурс 3</title>
  <g style="isolation: isolate">
    <g>
      <polygon points="71.3 20.18 71.3 16.37 89.58 19.75 88.84 22.71 71.3 20.18" style="fill: #4f2f5b;fill-rule: evenodd"/>
      <path d="M69.27,0l32.64,7c2.42,2.3,1.56,12.48-3.7,14.77L67.92,17.5S72.5,10.41,69.27,0Z" style="fill-rule: evenodd;fill: url(#a)"/>
      <path d="M69.27,0c-3.5,1.16-6.76,12.89-1.35,17.5,0,0,3-2.13,3.33-8.62C71.59,2.17,69.27,0,69.27,0Z" style="fill: #766bd5;fill-rule: evenodd"/>
      <path d="M70.24,9.07a8.24,8.24,0,0,1-1.71,5.06,2.26,2.26,0,0,1-.5.45c-2.21-1.09-3-8.65.59-11.93a4.28,4.28,0,0,1,.57.83A9.9,9.9,0,0,1,70.24,9.07Z" style="fill: #321255;fill-rule: evenodd"/>
      <path d="M70.24,9.07a8.24,8.24,0,0,1-1.71,5.06c-2.15-2.24-1.2-9.12.66-10.65A9.9,9.9,0,0,1,70.24,9.07Z" style="fill-rule: evenodd;fill: url(#b)"/>
      <path d="M144.91,35.69l9.7,2.18C157.92,40.1,159.82,54,153.9,58l-11,2.26Z" style="fill-rule: evenodd;fill: url(#c)"/>
      <path d="M20,10,143.3,31.6c5.53,1.3,8.49,24.22-2,30.63L20.17,71.39S26.21,46.18,20,10Z" style="fill-rule: evenodd;fill: url(#d)"/>
      <path d="M18.68,7.74l36.43,5.72c12,8.25,17,47.36-4.31,58.11L15.26,74.63S35.93,46,18.68,7.74Z" style="fill-rule: evenodd;fill: url(#e)"/>
      <path d="M18.68,7.74C-1,14.58-9.48,57.73,15.26,74.63c0,0,14-10.2,14.42-34.22C30.15,15.53,18.68,7.74,18.68,7.74Z" style="fill: #766bd5;fill-rule: evenodd"/>
      <path d="M28.26,41.7c-.62,14.55-6.2,24-9.83,27.37a14.52,14.52,0,0,1-3.12,2.32C.87,66.27-6.24,26.84,16.37,10a24.47,24.47,0,0,1,3.85,4.08C23.92,18.86,28.85,27.89,28.26,41.7Z" style="fill: #321255;fill-rule: evenodd"/>
      <path d="M28.26,41.7c-.62,14.55-6.2,24-9.83,27.37-14.35-10.82-9.84-47.14,1.79-55C23.92,18.86,28.85,27.89,28.26,41.7Z" style="fill-rule: evenodd;fill: url(#f)"/>
      <path d="M15.38,23.53a16.7,16.7,0,0,0-2.15,6.83l3.69.07,2.27-6.83Z" style="fill: #fff"/>
      <path d="M102.93,24.53l2-1c3.81,0,10.07,27.71.55,43.62l-3.27-2L105,65s10.07-19.65-.21-40.09Z" style="fill: #ff4c4f;fill-rule: evenodd"/>
      <path d="M105,23.52c5.6,3.33,7.84,31.9.55,43.62l13.34-1c6.71-5.45,9.18-30.62,1.47-40.22Z" style="fill-rule: evenodd;fill: url(#g)"/>
      <path d="M23.16,12.78s23,4.69,24.29,6.08-20,2.84-20,2.84S24.36,14.45,23.16,12.78Z" style="fill: #fff;fill-rule: evenodd;opacity: 0.5;mix-blend-mode: soft-light"/>
      <rect x="86.26" y="31.16" width="0.25" height="44.25" transform="translate(30.79 138.2) rotate(-88.46)" style="fill: #53345f"/>
      <rect x="134.95" y="22.51" width="0.25" height="22.97" transform="translate(86.43 164.52) rotate(-83.69)" style="fill: #53345f"/>
      <path d="M58.43,16.75l1.86.27s11.94,21.43,2,49.69l43.24-1.66L105,65,54.82,68.77S74.92,49.33,58.43,16.75Z" style="fill-rule: evenodd;mix-blend-mode: multiply;fill: url(#h)"/>
      <path d="M84.16,19.77s7.29-4,4.29-15.67l8.37,1.78s4,8.22-2.32,15.34Z" style="fill-rule: evenodd;fill: url(#i)"/>
      <path d="M18.25,67.54c-.14.28,2-6,8.2-18C26.45,49.53,24.3,62.15,18.25,67.54Z" style="fill: #fff;fill-rule: evenodd;opacity: 0.5;mix-blend-mode: soft-light"/>
      <polygon points="65.83 21.93 77.45 23.52 79.18 25.24 66.13 24.34 65.83 21.93" style="fill: #fff;fill-rule: evenodd"/>
      <polygon points="124.06 30.35 129.24 31.55 129.92 32.74 125.11 32.06 124.06 30.35" style="fill: #fff;fill-rule: evenodd"/>
    </g>
  </g>
</svg>
