<?xml version="1.0" encoding="iso-8859-1"?>
<!-- Generator: Adobe Illustrator 19.0.0, SVG Export Plug-In . SVG Version: 6.00 Build 0)  -->
<svg width="25px" height="25px" xmlns="http://www.w3.org/2000/svg" xmlns:xlink="http://www.w3.org/1999/xlink" version="1.1" id="Capa_1" x="0px" y="0px" viewBox="0 0 512 512" style="enable-background:new 0 0 512 512;" xml:space="preserve">
<path style="fill:#42C8C6;" d="M256,469.5v-30c101.182,0,183.5-82.318,183.5-183.5S357.182,72.5,256,72.5v-30  c117.724,0,213.5,95.776,213.5,213.5S373.724,469.5,256,469.5z"/>
<path style="fill:#81E3E2;" d="M256,469.5c-117.724,0-213.5-95.776-213.5-213.5S138.276,42.5,256,42.5v30  C154.818,72.5,72.5,154.818,72.5,256S154.818,439.5,256,439.5V469.5z"/>
<g>
	<rect x="241" y="241" style="fill:#FE5F1A;" width="30" height="30"/>
	<rect x="181" y="241" style="fill:#FE5F1A;" width="30" height="30"/>
	<rect x="301" y="241" style="fill:#FE5F1A;" width="30" height="30"/>
</g>
<rect x="241" style="fill:#42C8C6;" width="30" height="120"/>
<rect y="241" style="fill:#81E3E2;" width="120" height="30"/>
<g>
	<rect x="241" y="392" style="fill:#42C8C6;" width="30" height="120"/>
	<rect x="392" y="241" style="fill:#42C8C6;" width="120" height="30"/>
</g>
<g>
</g>
<g>
</g>
<g>
</g>
<g>
</g>
<g>
</g>
<g>
</g>
<g>
</g>
<g>
</g>
<g>
</g>
<g>
</g>
<g>
</g>
<g>
</g>
<g>
</g>
<g>
</g>
<g>
</g>
</svg>
