<svg xmlns="http://www.w3.org/2000/svg" xmlns:xlink="http://www.w3.org/1999/xlink" viewBox="0 0 83.47 73.83">
  <defs>
    <radialGradient id="a" data-name="Безымянный градиент 198" cx="33.67" cy="30.64" r="35.91" gradientUnits="userSpaceOnUse">
      <stop offset="0" stop-color="#5ea4ea"/>
      <stop offset="0.77" stop-color="#75fff6"/>
      <stop offset="1" stop-color="#f2f4ff"/>
    </radialGradient>
    <radialGradient id="b" cx="37.69" cy="36.8" r="35.39" xlink:href="#a"/>
    <radialGradient id="c" cx="42.86" cy="34.41" r="32.8" xlink:href="#a"/>
  </defs>
  <title>Снаряд</title>
  <g>
    <path d="M44,68C25.5,75.17,5.33,57.85,6.06,32.73s42-28,57.23-17.93S72.74,56.77,44,68Z" style="fill: #5baeff;fill-rule: evenodd;opacity: 0.61"/>
    <path d="M65.36,39.18A26.13,26.13,0,0,1,28.14,62.83c-.67-.31-1.32-.66-1.95-1A26,26,0,0,1,15.44,49.94a26.14,26.14,0,0,1,0-21.53,25.47,25.47,0,0,1,1.64-3.05,26.26,26.26,0,0,1,4.78-5.67h0a26,26,0,0,1,17.38-6.63,26,26,0,0,1,13.9,4h0c.46.29.9.59,1.34.91s.72.53,1.07.81A26.16,26.16,0,0,1,65.2,36.29,25.07,25.07,0,0,1,65.36,39.18Z" style="fill-rule: evenodd;fill: url(#a)"/>
    <g style="opacity: 0.61">
      <path d="M40.89,9.64h0c8.84,0,17.16,2,22.26,5.37C69,18.89,72,26.38,71.07,35.06,70,45.69,62.16,60.62,43.93,67.72a23.38,23.38,0,0,1-8.57,1.64c-6.83,0-13.52-3-18.84-8.49C9.72,53.86,6,43.61,6.31,32.74c.47-16,17.7-23.1,34.58-23.1Zm0-.25C24.35,9.39,6.54,16.3,6.06,32.73,5.45,54,19.74,69.61,35.36,69.61A23.75,23.75,0,0,0,44,68C72.74,56.77,78.54,24.86,63.29,14.8,58,11.33,49.63,9.39,40.88,9.39Z" style="fill: #90ccff"/>
    </g>
    <path d="M25,10.84A121.46,121.46,0,0,0,14.71,19.6,46.07,46.07,0,0,0,6.4,30.07a19.45,19.45,0,0,0-2.05,12.6A40.64,40.64,0,0,0,9.21,54.91a36.67,36.67,0,0,0,20.3,16.43,35,35,0,0,0,13.24,1.74,27,27,0,0,0,12.61-3.91,28.83,28.83,0,0,0,9.23-9.35A35.63,35.63,0,0,0,69.17,47.5a52.46,52.46,0,0,0,.61-13.25,75.5,75.5,0,0,0-2.14-13.17A23.16,23.16,0,0,0,61.71,9.7,21,21,0,0,0,50.26,4,30.72,30.72,0,0,0,37,4.85,36.4,36.4,0,0,0,25,10.84Zm-.12-.16a41.5,41.5,0,0,1,12-6.36A32.05,32.05,0,0,1,50.44,2.66,21.27,21.27,0,0,1,63.06,8.33a24.63,24.63,0,0,1,6.65,12.23c2.23,8.85,3.08,18.21,1.31,27.3a36.17,36.17,0,0,1-5.09,12.82,28.66,28.66,0,0,1-23.14,13.1A39,39,0,0,1,29.31,72a41.46,41.46,0,0,1-12.19-6.13A36.09,36.09,0,0,1,7.77,55.76a32.85,32.85,0,0,1-1.69-3,31.82,31.82,0,0,1-1.46-3.13,30.33,30.33,0,0,1-2-6.66,19.66,19.66,0,0,1,2.7-13.52,46.85,46.85,0,0,1,9.05-10.23C17.77,16.23,21.33,13.44,24.91,10.68Z" style="fill: #4accff"/>
    <path d="M64.82,60.13c.88-4.48,2-8.89,3.25-13.29.6-2.19,1.22-4.39,1.76-6.6a43.82,43.82,0,0,0,1.22-6.7,15.81,15.81,0,0,0,0-3.37,18.45,18.45,0,0,0-.94-3.24,16.7,16.7,0,0,0-1.51-3C67.94,23,67.28,22,66.68,21A27.6,27.6,0,0,1,65.09,18c-.48-1-.85-2.14-1.32-3.16a25,25,0,0,0-3.68-5.66,26.65,26.65,0,0,0-10.8-8A12.92,12.92,0,0,0,42.64.41c-.56.1-1.09.28-1.64.41a15.25,15.25,0,0,0-1.59.6c-.53.2-1,.49-1.54.72a14.36,14.36,0,0,0-1.43.91c-1.88,1.3-3,3.33-4.46,5.11A29.49,29.49,0,0,1,27.13,13c-.88.74-1.83,1.37-2.74,2l-2.86,1.88a35.63,35.63,0,0,0-5.33,4.23A41.32,41.32,0,0,0,8.09,32,32,32,0,0,0,4.44,45a22,22,0,0,0,3.31,12.9,29.05,29.05,0,0,0,9.81,9.18A40.68,40.68,0,0,0,30,72.42a31.91,31.91,0,0,0,13.48.14A56.7,56.7,0,0,0,56.3,68c2.06-1,4.21-1.76,6.27-2.72.5-.26,1-.51,1.49-.82a3.92,3.92,0,0,0,1.24-1.12,1.18,1.18,0,0,0,.16-.8,3.22,3.22,0,0,0-.3-.78A2.55,2.55,0,0,1,64.82,60.13Zm.05,0a2.46,2.46,0,0,0,.35,1.62,3.69,3.69,0,0,1,.31.8,1.26,1.26,0,0,1-.16.85,3.88,3.88,0,0,1-1.26,1.16c-.48.32-1,.57-1.49.84-2.07,1-4.2,1.78-6.25,2.78a58,58,0,0,1-12.85,4.67,32.22,32.22,0,0,1-13.65,0,39.31,39.31,0,0,1-12.57-5.4,29.55,29.55,0,0,1-10-9.34A22.65,22.65,0,0,1,4,45,31.78,31.78,0,0,1,7.75,31.83,41.63,41.63,0,0,1,16,20.94a36.12,36.12,0,0,1,5.39-4.23l2.86-1.86c.92-.67,1.87-1.3,2.74-2a28.81,28.81,0,0,0,4.86-4.76c1.43-1.75,2.56-3.82,4.47-5.17A13.65,13.65,0,0,1,37.78,2c.51-.25,1-.54,1.55-.75a17,17,0,0,1,1.6-.61C41.48.46,42,.28,42.6.17a13.23,13.23,0,0,1,6.79.74,27,27,0,0,1,11,8,25.58,25.58,0,0,1,3.78,5.74c.49,1.05.85,2.12,1.33,3.14a30.77,30.77,0,0,0,1.56,3c.57,1,1.22,1.9,1.83,2.88a17.13,17.13,0,0,1,1.52,3.1,19.64,19.64,0,0,1,.92,3.32,15.92,15.92,0,0,1,0,3.45,43.92,43.92,0,0,1-1.29,6.73c-.56,2.21-1.2,4.4-1.82,6.59C67,51.27,65.79,55.67,64.87,60.14Z" style="fill: url(#b)"/>
    <path d="M44.5,68.22C26,75.44,5.81,58.12,6.54,33s42-28,57.23-17.93S73.22,57,44.5,68.22Z" style="fill: #5baeff;fill-rule: evenodd;opacity: 0.61"/>
    <path d="M57,47.47A11,11,0,0,0,55.28,50c-.27.6-.78,1.47-.2,2s2.18-.38,2.74-.92c.27-.26.55-.55.82-.83a3.39,3.39,0,0,0,.66-1.05,7.33,7.33,0,0,0,.33-2.91,9.27,9.27,0,0,0,0-1.9,5.79,5.79,0,0,0-1-1.79c-.82-1-1.22.06-1.37.84a15,15,0,0,1-.5,2.72c-.07.2-.07.43-.15.63s-.22.24-.26.35a4,4,0,0,0,0,1.29Z" style="fill: #5baeff;fill-rule: evenodd"/>
    <path d="M60.78,38.72c-.1-.22-.61-.88-.17-1a.77.77,0,0,1,.63.2,2.77,2.77,0,0,1,.37,1.76c0,.45-.08.71-.46.32a2,2,0,0,1-.53-1Z" style="fill: #5baeff;fill-rule: evenodd"/>
    <path d="M52.53,51.43c-.33-.4-.5-.7-1-.82-.26-.07-.6-.08-.87-.13a5.17,5.17,0,0,0-3,.8c-.84.37-1.73.64-2.59,1a5.48,5.48,0,0,0-2.51,2.13A17.81,17.81,0,0,0,40.79,58a4.94,4.94,0,0,0-.46,2.69A1.86,1.86,0,0,0,42.14,62a13.8,13.8,0,0,0,2.49,0c.44-.06.86-.23,1.29-.28s.72,0,1.07,0,.71-.14,1.08-.17A4.51,4.51,0,0,0,50,60.85a11.2,11.2,0,0,0,1.58-1.34,5.88,5.88,0,0,0,1.73-1.95,4.83,4.83,0,0,0,.26-2,10.22,10.22,0,0,0,0-1.75,4.38,4.38,0,0,1-.15-.72c0-.24,0-.49,0-.73C53.31,51.92,53,51.65,52.53,51.43Z" style="fill: #5baeff;fill-rule: evenodd"/>
    <path d="M51.86,47.64c.32-.4.83-1,1.38-.55a1,1,0,0,1,.12,1.15c-.37.48-1.39-.05-1.5-.6Z" style="fill: #5baeff;fill-rule: evenodd"/>
    <path d="M26.68,30.42a37.22,37.22,0,0,0,3-2.68c.77-.73,1.6-1.38,2.37-2.1a5.08,5.08,0,0,0,1.49-2.5,5.76,5.76,0,0,0,0-2.58,2.88,2.88,0,0,0-.85-1.73,2.41,2.41,0,0,0-1.89-.43,5.12,5.12,0,0,0-2.49.79c-1.3.72-2.37,1.7-3.6,2.53s-1.66,1.8-1.19,2.47A5.14,5.14,0,0,0,22,26a9.09,9.09,0,0,0-.88,3.61,3.15,3.15,0,0,0,.58,2.31c.88,1,2.82-.14,3.69-.68.36-.23.69-.48,1-.74s1-.79,1.63-.63A1.24,1.24,0,0,1,29,31.55c-.52,1-1.57.37-2.07-.26Z" style="fill: #5baeff;fill-rule: evenodd"/>
    <path d="M37.5,16.59c-.24.48-.45.71-.14,1.15a3.63,3.63,0,0,0,1.28,1.15,6.1,6.1,0,0,0,1.65.31,26.39,26.39,0,0,0,2.67,0H45.3A3.73,3.73,0,0,0,47,19.05c.95-.45,1.48-1.1,1-2.11-1-2.39-4-3-6.32-3a7,7,0,0,0-2.77.32C38,14.71,36.63,15.5,37.5,16.59Z" style="fill: #5baeff;fill-rule: evenodd"/>
    <path d="M50.71,21.38c.34-.62.86-1.07,1.57-.67A1.45,1.45,0,0,1,53,22.13a1,1,0,0,1-.84.7c-.65.13-1.22-.53-1.65-.95Z" style="fill: #5baeff;fill-rule: evenodd"/>
    <path d="M54.18,43.51a2.15,2.15,0,0,0-.5,1.57c0,.4-.12,1.17.33,1.39.29.14.51,0,.7-.15a1.61,1.61,0,0,0,.71-.75,3.12,3.12,0,0,0,.25-1.65c-.16-.92-1-.58-1.49-.08Z" style="fill: #5baeff;fill-rule: evenodd"/>
    <path d="M33,58.37c-.57.05-1.88-.13-2.31.48a1.57,1.57,0,0,0-.35.8A2.75,2.75,0,0,0,31.72,62c1.13.82,3,1.32,4.22.42a1.78,1.78,0,0,0,.14-2.79c-.67-.54-2.34-1.65-3.2-1.07Z" style="fill: #5baeff;fill-rule: evenodd"/>
    <path d="M37.17,56.88c.55.7.65.82,1.31.46.26-.14.44-.14.52-.45a1.61,1.61,0,0,0,0-.58,1.14,1.14,0,0,0-.91-.25.68.68,0,0,0-.74.66Z" style="fill: #5baeff;fill-rule: evenodd"/>
    <path d="M42.72,7.57c-4.28.55-8.57,1-12.83,1.6a76.44,76.44,0,0,0-12.59,2.7,24.75,24.75,0,0,0-5.75,2.69,13.57,13.57,0,0,0-2.36,2,9.35,9.35,0,0,0-2.26,5.65L6.8,23.83c0,.53,0,1.06,0,1.6a21.3,21.3,0,0,0,.94,6.24C9,35.73,11.56,39.25,14,42.77c1.25,1.75,2.48,3.53,3.67,5.33.59.9,1.15,1.84,1.8,2.68l.95,1.29c.35.41.73.78,1.09,1.17a26.2,26.2,0,0,0,10.9,6.57,40,40,0,0,0,12.67,1.88,55.17,55.17,0,0,0,24.62-6.46,36.58,36.58,0,0,0,5.45-3.3c1.64-1.27,3.17-2.84,3.51-4.8s-.35-4-1.07-6-1.54-4-2.15-6.12a41.86,41.86,0,0,1-1.34-6.4c-.32-2.13-.63-4.26-1-6.35a27.55,27.55,0,0,0-1.83-6.08,13.87,13.87,0,0,0-3.73-5,15.64,15.64,0,0,0-5.59-2.91,30.59,30.59,0,0,0-6.31-1.13A47.88,47.88,0,0,0,49.16,7C47,7.12,44.86,7.34,42.72,7.57Zm0-.1a72.33,72.33,0,0,1,12.91-.64,30.48,30.48,0,0,1,6.43,1,16.21,16.21,0,0,1,5.88,2.84A14.15,14.15,0,0,1,72,15.81,27.79,27.79,0,0,1,74,22c.48,2.13.79,4.27,1.11,6.4a42,42,0,0,0,1.32,6.25c.61,2,1.4,4,2.16,6.06a26.85,26.85,0,0,1,1,3.15,8.36,8.36,0,0,1,.12,3.42,7.13,7.13,0,0,1-1.5,3.1,13.94,13.94,0,0,1-2.44,2.3,38.22,38.22,0,0,1-5.62,3.35,55,55,0,0,1-25,6.17,42.29,42.29,0,0,1-12.78-2.1,27.54,27.54,0,0,1-11-6.66c-.38-.39-.77-.77-1.13-1.17l-1-1.31c-.68-.86-1.23-1.78-1.84-2.67-1.23-1.77-2.49-3.51-3.78-5.24-2.52-3.46-5.26-7-6.63-11.17a22,22,0,0,1-1-6.48c0-.55,0-1.1,0-1.65L6,22.16a9.79,9.79,0,0,1,.75-3.26,10,10,0,0,1,1.79-2.84,13.34,13.34,0,0,1,2.54-2.15,23.52,23.52,0,0,1,6-2.64A77.2,77.2,0,0,1,29.85,8.91Z" style="fill: url(#c)"/>
    <path d="M79.77,52c-.3.14-.53.18-.71.43a1.16,1.16,0,0,0-.21.63.89.89,0,0,0,.16.65,1.67,1.67,0,0,0,.77.28,3.18,3.18,0,0,0,3.38-1.49,3.63,3.63,0,0,0,.29-.86.68.68,0,0,0-.12-.58,1.72,1.72,0,0,1-.43-.85c-.07-.91.73-1.85.43-2.75-.17-.51-.37-1-1-.87a3,3,0,0,0-1.51,1.28,4.37,4.37,0,0,0-.6,1.25c-.11.38-.18.77-.32,1.15s-.27.67-.42,1C79.29,51.85,79.14,52.3,79.77,52Z" style="fill: #5baeff;fill-rule: evenodd"/>
    <path d="M81.67,44.75c-.07-.23-.24-.86.18-.84s.56.55.63.84c.12.53-.76.52-.73.16Z" style="fill: #5baeff;fill-rule: evenodd"/>
    <path d="M81.83,57.89A5.74,5.74,0,0,1,83,58a.93.93,0,0,0,0,.32,1.85,1.85,0,0,1-.1.9,2.23,2.23,0,0,1-1,1.19,1.87,1.87,0,0,1-2.13-.4c-.48-.39-.93-1.13-.35-1.66A4.08,4.08,0,0,1,81,57.56c.25-.08.86-.32,1.09-.08Z" style="fill: #5baeff;fill-rule: evenodd"/>
    <path d="M2.74,20.72c-.38.18-.62.19-.74.57A5.69,5.69,0,0,0,1.74,23a5,5,0,0,0,.74,2.81c.08.13.25.38.42.41s.52-.28.66-.4a6.34,6.34,0,0,0,1.29-1.58,2.82,2.82,0,0,0,.31-1.91c-.07-.44-.18-.86-.26-1.3a2.69,2.69,0,0,0-.22-.83c-.16-.34-.36-.74-.79-.66a3.17,3.17,0,0,0-1.05.58C2.42,20.46,2.23,20.91,2.74,20.72Z" style="fill: #5baeff;fill-rule: evenodd"/>
    <path d="M2.49,29.31a.87.87,0,0,1-.07-.42.68.68,0,0,1,.78,0c.26.14.49.45.32.74a.61.61,0,0,1-.7.31c-.3-.12-.64-.4-.58-.77Z" style="fill: #5baeff;fill-rule: evenodd"/>
    <path d="M.18,37.56c-.12.27-.33.76,0,1a.52.52,0,0,0,.34.08c.14,0,.17-.14.25-.24a1.93,1.93,0,0,0,.58-1.14c0-.27-.12-1-.54-.86S.2,37.56.18,37.89Z" style="fill: #5baeff;fill-rule: evenodd"/>
    <path d="M4.72,58.62a4.45,4.45,0,0,0,1,1.1c.18.17.53.53.82.38s.28-.62.26-.82a2.49,2.49,0,0,0-.49-1,1.19,1.19,0,0,0-1.16-.46c-.26.11-.41.23-.41.54Z" style="fill: #5baeff;fill-rule: evenodd"/>
    <path d="M10,55.15a7.37,7.37,0,0,0,2.31,2.65c.18.12.45.27.64.08s0-.67-.15-.91a20.08,20.08,0,0,0-1.39-2.43,11.58,11.58,0,0,1-.76-1.25c-.2-.46-.49-.9-.72-1.36s-.43-.79-.64-1.19c-.08-.15-.27-.47-.45-.53s-.41.18-.48.35a2.13,2.13,0,0,0,0,1.12,6.18,6.18,0,0,0,.4,1.24,8.1,8.1,0,0,0,.51,1.26A12,12,0,0,0,10,55.41a9.2,9.2,0,0,0,.59.77c.25.26.55.46.82.7Z" style="fill: #5baeff;fill-rule: evenodd"/>
    <path d="M61.86,67.29c.39-.08,1-.39,1.27.07a1.07,1.07,0,0,1,0,1c-.24.67-.68,1.32-1.46,1.32-.54,0-1.35-.24-1.35-.88a1,1,0,0,1,.58-.86,3.41,3.41,0,0,1,1.24-.57Z" style="fill: #5baeff;fill-rule: evenodd"/>
  </g>
</svg>
